<!DOCTYPE svg PUBLIC "-//W3C//DTD SVG 1.1//EN" "http://www.w3.org/Graphics/SVG/1.1/DTD/svg11.dtd">
<!-- Uploaded to: SVG Repo, www.svgrepo.com, Transformed by: SVG Repo Mixer Tools -->
<svg fill="#333333" height="64px" width="64px" version="1.1" id="Layer_1" xmlns="http://www.w3.org/2000/svg" xmlns:xlink="http://www.w3.org/1999/xlink" viewBox="0 0 512 512" xml:space="preserve" stroke="#333333">
<g id="SVGRepo_bgCarrier" stroke-width="0"/>
<g id="SVGRepo_tracerCarrier" stroke-linecap="round" stroke-linejoin="round"/>
<g id="SVGRepo_iconCarrier"> <g> <g> <path d="M464.918,344.91L377.277,82.009c-3.896-11.665-16.362-18.031-28.138-14.091c-11.665,3.896-17.964,16.495-14.069,28.16 l79.538,238.681c-35.929,3.406-65.447,27.982-76.088,61.306L138.262,195.829c8.771-9.06,16.495-20.547,21.304-35.684 c27.581-8.303,55.563-31.076,62.731-74.374l1.87-11.309l-43.565-43.565C160.701,10.975,134.1,0,105.761,0 C77.423,0,50.822,10.975,30.92,30.898C10.975,50.844,0,77.423,0,105.761s10.975,54.94,30.92,74.863l42.585,42.607l10.084-0.668 c4.385-0.312,9.75-1.358,15.427-3.027l241.419,241.419c1.068,1.069,2.404,1.603,3.629,2.404 c14.781,28.739,44.41,48.64,78.893,48.64C472.064,512,512,472.064,512,422.957C512,389.098,492.789,359.958,464.918,344.91z M422.957,467.478c-24.554,0-44.522-19.968-44.522-44.522c0-24.554,19.968-44.522,44.522-44.522 c24.554,0,44.522,19.968,44.522,44.522C467.478,447.51,447.51,467.478,422.957,467.478z"/> </g> </g> </g>
</svg>