<!DOCTYPE svg PUBLIC "-//W3C//DTD SVG 1.1//EN" "http://www.w3.org/Graphics/SVG/1.1/DTD/svg11.dtd">
<!-- Uploaded to: SVG Repo, www.svgrepo.com, Transformed by: SVG Repo Mixer Tools -->
<svg fill="#333333" height="64px" width="64px" version="1.1" id="Layer_1" xmlns="http://www.w3.org/2000/svg" xmlns:xlink="http://www.w3.org/1999/xlink" viewBox="0 0 512.004 512.004" xml:space="preserve" stroke="#333333">
<g id="SVGRepo_bgCarrier" stroke-width="0"/>
<g id="SVGRepo_tracerCarrier" stroke-linecap="round" stroke-linejoin="round"/>
<g id="SVGRepo_iconCarrier"> <g> <g> <g> <path d="M422.411,402.473c14.029-22.409,23.714-47.804,27.733-75.034l-12.595,5.035c-42.743,12.228-86.093,17.527-127.369,17.527 c-88.917,0-168.329-24.585-211.942-57.464c-19.61-14.788-29.969-30.37-29.969-45.073v-6.025 c-5.538,18.116-8.533,37.325-8.533,57.225c0,2.569,0.094,5.111,0.196,7.654l18.534,21.734 c42.556,63.522,141.986,88.653,322.261,81.553h5.129l91.725,100.036c1.647,1.57,3.772,2.355,5.888,2.355 c2.253,0,4.497-0.887,6.178-2.645c3.251-3.405,3.123-8.815-0.29-12.058L422.411,402.473z"/> <path d="M85.335,201.933v45.534c0,8.875,8.448,20.335,23.177,31.437c86.042,64.87,241.015,60.877,323.925,37.274l19.584-7.834 c0.162-3.209,0.247-6.434,0.247-9.677c0-20.429-3.149-40.132-8.96-58.667l-14.327,7.151 c-43.768,12.322-85.419,17.596-123.281,17.596c-71.672,0-129.852-18.859-163.576-44.399 c-20.113-15.232-31.189-32.879-31.189-49.681v-4.053C101.148,177.357,92.572,189.219,85.335,201.933z"/> <path d="M172.101,219.141c15.087,8.021,33.263,14.814,53.982,19.772c56.166-0.23,96.094-50.884,127.753-100.463l4.019-7.492 c-19.149-11.674-40.439-20.147-63.138-24.704l-5.589,10.445C260.191,162.044,224.231,207.783,172.101,219.141z"/> <path d="M271.311,246.162c44.484,4.079,96.367,0.418,152.269-15.223l13.892-6.946c-11.366-27.52-28.885-51.823-50.731-71.398 l33.715-42.385c9.225,5.828,20.113,9.259,31.812,9.259c32.939,0,59.733-26.795,59.733-59.733S485.207,0.001,452.269,0.001 c-32.939,0-59.733,26.795-59.733,59.733c0,15.13,5.7,28.928,15.01,39.467l-33.877,42.59c-0.546-0.41-1.058-0.862-1.604-1.271 l-3.524,6.562C342.829,187.393,312.023,228.012,271.311,246.162z M460.802,34.135c4.71,0,8.533,3.823,8.533,8.533 c0,4.71-3.823,8.533-8.533,8.533c-9.412,0-17.067,7.654-17.067,17.067c0,4.71-3.823,8.533-8.533,8.533s-8.533-3.823-8.533-8.533 C426.669,49.443,441.977,34.135,460.802,34.135z"/> <path d="M345.148,427.83c-151.467,0-239.078-28.365-280.585-89.865l-1.101-1.289c5.265,26.718,16.077,51.43,31.01,73.088 c-0.026,0.026-0.06,0.034-0.094,0.06L2.646,497.292c-3.413,3.251-3.541,8.653-0.282,12.066c1.673,1.758,3.925,2.645,6.17,2.645 c2.116,0,4.241-0.785,5.888-2.364l90.385-86.178c36.019,43.58,90.368,71.475,151.194,71.475 c59.341,0,112.58-26.513,148.599-68.267h-3.533C381.543,427.438,362.897,427.83,345.148,427.83z"/> <path d="M59.735,119.468c11.196,0,21.641-3.149,30.601-8.533l38.485,38.485c-0.265,0.23-0.555,0.427-0.819,0.648v20.599 c0,10.684,7.799,22.682,21.888,34.022c44.715-1.195,82.133-30.242,124.518-96.614l2.441-4.557 c-6.852-0.725-13.807-1.118-20.847-1.118c-42.342,0-81.536,13.542-113.621,36.446l-38.741-38.741 c9.788-10.65,15.829-24.798,15.829-40.371c0-32.939-26.795-59.733-59.733-59.733S0.002,26.796,0.002,59.735 S26.797,119.468,59.735,119.468z M68.269,34.135c4.71,0,8.533,3.823,8.533,8.533c0,4.71-3.823,8.533-8.533,8.533 c-9.412,0-17.067,7.654-17.067,17.067c0,4.71-3.823,8.533-8.533,8.533c-4.71,0-8.533-3.823-8.533-8.533 C34.135,49.443,49.444,34.135,68.269,34.135z"/> </g> </g> </g> </g>
</svg>