<!DOCTYPE svg PUBLIC "-//W3C//DTD SVG 1.1//EN" "http://www.w3.org/Graphics/SVG/1.1/DTD/svg11.dtd">
<!-- Uploaded to: SVG Repo, www.svgrepo.com, Transformed by: SVG Repo Mixer Tools -->
<svg fill="#333333" height="64px" width="64px" version="1.1" xmlns="http://www.w3.org/2000/svg" viewBox="0 0 297 297" xmlns:xlink="http://www.w3.org/1999/xlink" enable-background="new 0 0 297 297" stroke="#333333">
<g id="SVGRepo_bgCarrier" stroke-width="0"/>
<g id="SVGRepo_tracerCarrier" stroke-linecap="round" stroke-linejoin="round"/>
<g id="SVGRepo_iconCarrier"> <g> <polygon points="258.416,214.704 258.416,214.703 258.409,214.704 "/> <path d="m38.584,174.43l37.441,19.322c4.084,2.063 8.96,2.061 13.044,0l23.413-11.825c8.785-4.436 19.274-4.436 28.059,0l23.413,11.825c4.085,2.062 8.96,2.063 13.044,0.001l23.42-11.827c8.785-4.438 19.273-4.438 28.058,0l29.94,15.12v-56.732l-109.916-54.958-109.916,54.958v34.116z"/> <path d="m59.54,296.028h177.919c11.574,0 20.956-9.382 20.956-20.956v-22.314l-38.281-19.328c-4.082-2.062-8.959-2.062-13.041,0l-23.421,11.827c-8.785,4.437-19.272,4.438-28.059-0.001l-23.412-11.825c-4.085-2.062-8.961-2.062-13.044,0l-23.413,11.825c-8.782,4.438-19.272,4.438-28.059,0l-29.101-14.698v44.515c-2.84217e-14,11.573 9.383,20.955 20.956,20.955z"/> <path d="m266.743,127.2v-20.035l14.558,6.617c1.49,0.678 3.05,0.999 4.587,0.999 4.22,0 8.254-2.42 10.114-6.512 2.537-5.582 0.069-12.164-5.513-14.701l-115.159-52.345 41.882-19.037c5.583-2.537 8.051-9.12 5.513-14.701-2.537-5.584-9.121-8.054-14.701-5.513l-59.524,27.056-59.524-27.057c-5.578-2.536-12.164-0.068-14.701,5.513-2.537,5.582-0.069,12.164 5.513,14.701l41.882,19.037-115.159,52.346c-5.583,2.537-8.05,9.12-5.513,14.701 1.859,4.093 5.894,6.512 10.114,6.512 1.536,0 3.098-0.321 4.587-0.999l14.558-6.617v20.035l16.654-8.428v-19.177l19.985-9.084v18.268l16.654-8.327v-15.096c0-0.788-0.117-1.547-0.321-2.269l20.306-9.23v16.603l16.654-8.327v-15.096c0-0.247-0.016-0.491-0.037-0.732l20.022-9.101v14.938l1.376-.688c2.188-1.094 4.57-1.641 6.951-1.641 2.382,0 4.763,0.547 6.951,1.641l1.376,.688v-14.939l20.022,9.101c-0.021,0.242-0.037,0.485-0.037,0.732v15.097l16.654,8.327v-16.603l19.985,9.084v17.511l16.654,8.327v-18.268l19.985,9.084v19.177l16.652,8.428z"/> <path d="m207.926,196.791l-23.421,11.827c-8.785,4.437-19.272,4.438-28.059-0.001l-23.412-11.825c-4.085-2.062-8.961-2.062-13.044,0l-23.413,11.825c-8.783,4.437-19.272,4.438-28.059,0l-29.934-15.119v17.993l36.608,18.9c4.084,2.063 8.96,2.061 13.045,0l23.413-11.825c8.784-4.436 19.274-4.437 28.059,0l23.413,11.825c4.085,2.062 8.96,2.063 13.043,0.001l23.42-11.827c8.785-4.438 19.273-4.438 28.058,0l30.773,15.541v-17.764l-37.449-19.551c-4.082-2.062-8.959-2.062-13.041,0z"/> </g> </g>
</svg>