<!DOCTYPE svg PUBLIC "-//W3C//DTD SVG 1.1//EN" "http://www.w3.org/Graphics/SVG/1.1/DTD/svg11.dtd">
<!-- Uploaded to: SVG Repo, www.svgrepo.com, Transformed by: SVG Repo Mixer Tools -->
<svg fill="#333333" height="64px" width="64px" version="1.1" id="Capa_1" xmlns="http://www.w3.org/2000/svg" xmlns:xlink="http://www.w3.org/1999/xlink" viewBox="0 0 511 511" xml:space="preserve" stroke="#333333">
<g id="SVGRepo_bgCarrier" stroke-width="0"/>
<g id="SVGRepo_tracerCarrier" stroke-linecap="round" stroke-linejoin="round"/>
<g id="SVGRepo_iconCarrier"> <g> <path d="M511,95.5C511,42.841,468.159,0,415.5,0c-38.904,0-73.487,23.396-88.182,58.904C304.4,51.735,280.243,48,255.5,48 c-24.744,0-48.9,3.735-71.819,10.904C168.985,23.398,134.396,0,95.5,0C42.841,0,0,42.841,0,95.5 c0,32.897,16.864,63.205,44.437,80.66c-16.129,31.695-24.664,66.871-24.664,103.34c0,61.862,24.538,120.015,69.093,163.745 C133.383,486.938,192.562,511,255.5,511s122.117-24.063,166.634-67.755c44.555-43.73,69.093-101.882,69.093-163.745 c0-36.469-8.535-71.645-24.665-103.341C494.138,158.705,511,128.412,511,95.5z M415.5,15c44.388,0,80.5,36.112,80.5,80.5 c0,27.433-13.909,52.705-36.705,67.494c-4.24-7.126-8.874-14.052-13.909-20.741C461.18,132.164,471,114.639,471,95.5 c0-30.603-24.897-55.5-55.5-55.5c-22.765,0-42.681,13.616-51.173,34.039c-7.42-3.801-15.032-7.208-22.815-10.199 C354.087,34.365,383.006,15,415.5,15z M435.882,130.464c-4.349-5.06-8.924-9.973-13.748-14.708 c-13.591-13.34-28.555-24.839-44.57-34.393C383.377,65.617,398.329,55,415.5,55c22.332,0,40.5,18.168,40.5,40.5 C456,110.027,448.233,123.265,435.882,130.464z M15,95.5C15,51.112,51.112,15,95.5,15c32.488,0,61.413,19.366,73.988,48.839 c-7.787,2.993-15.404,6.402-22.829,10.206C138.145,53.652,118.147,40,95.5,40C64.897,40,40,64.897,40,95.5 c0,19.093,9.83,36.656,25.613,46.754c-5.035,6.689-9.668,13.615-13.908,20.74C28.912,148.204,15,122.921,15,95.5z M75.12,130.461 C62.777,123.258,55,109.992,55,95.5C55,73.168,73.168,55,95.5,55c17.083,0,32.101,10.647,37.927,26.368 c-16.011,9.553-30.972,21.05-44.561,34.388C84.043,120.49,79.469,125.402,75.12,130.461z M411.627,432.54 C369.932,473.462,314.484,496,255.5,496s-114.432-22.538-156.127-63.46c-41.658-40.886-64.6-95.237-64.6-153.04 s22.942-112.153,64.6-153.04C141.068,85.538,196.516,63,255.5,63s114.432,22.538,156.127,63.46 c41.658,40.886,64.6,95.237,64.6,153.04S453.285,391.653,411.627,432.54z"/> <path d="M178.106,223.5l2.697-2.697c2.929-2.929,2.929-7.678,0-10.606c-2.929-2.929-7.678-2.929-10.606,0l-2.697,2.697 l-2.697-2.697c-2.929-2.929-7.678-2.929-10.606,0c-2.929,2.929-2.929,7.678,0,10.606l2.697,2.697l-2.697,2.697 c-2.929,2.929-2.929,7.678,0,10.606c1.464,1.464,3.384,2.197,5.303,2.197s3.839-0.732,5.303-2.197l2.697-2.697l2.697,2.697 c1.464,1.464,3.384,2.197,5.303,2.197s3.839-0.732,5.303-2.197c2.929-2.929,2.929-7.678,0-10.606L178.106,223.5z"/> <path d="M356.803,210.197c-2.929-2.929-7.678-2.929-10.606,0l-2.697,2.697l-2.697-2.697c-2.929-2.929-7.678-2.929-10.606,0 c-2.929,2.929-2.929,7.678,0,10.606l2.697,2.697l-2.697,2.697c-2.929,2.929-2.929,7.678,0,10.606 c1.464,1.464,3.384,2.197,5.303,2.197s3.839-0.732,5.303-2.197l2.697-2.697l2.697,2.697c1.464,1.464,3.384,2.197,5.303,2.197 s3.839-0.732,5.303-2.197c2.929-2.929,2.929-7.678,0-10.606l-2.697-2.697l2.697-2.697 C359.732,217.875,359.732,213.125,356.803,210.197z"/> <path d="M263.965,320.905c0.658,3.47,3.707,6.095,7.369,6.095c4.142,0,7.5-3.358,7.5-7.5c0-8.981-9.813-15.5-23.333-15.5 c-4.142,0-7.5,3.358-7.5,7.5s3.358,7.5,7.5,7.5C259.969,319,262.887,320.194,263.965,320.905z"/> <path d="M327.5,368c-4.142,0-7.5,3.358-7.5,7.5c0,15.715-12.785,28.5-28.5,28.5S263,391.215,263,375.5v-8.946 c27.067-3.145,48-23.041,48-47.054c0-26.191-24.897-47.5-55.5-47.5S200,293.309,200,319.5c0,24.014,20.933,43.909,48,47.054v8.946 c0,15.715-12.785,28.5-28.5,28.5S191,391.215,191,375.5c0-4.142-3.358-7.5-7.5-7.5s-7.5,3.358-7.5,7.5 c0,23.986,19.514,43.5,43.5,43.5c14.954,0,28.167-7.586,36-19.11c7.833,11.524,21.046,19.11,36,19.11 c23.986,0,43.5-19.514,43.5-43.5C335,371.358,331.642,368,327.5,368z M215,319.5c0-17.92,18.168-32.5,40.5-32.5 s40.5,14.58,40.5,32.5S277.832,352,255.5,352S215,337.42,215,319.5z"/> <path d="M391,223.5c0-26.191-21.309-47.5-47.5-47.5S296,197.309,296,223.5c0,5.008,0.817,9.943,2.368,14.633 C284.889,234.158,270.476,232,255.5,232s-29.389,2.158-42.868,6.133c1.551-4.69,2.368-9.625,2.368-14.633 c0-26.191-21.309-47.5-47.5-47.5S120,197.309,120,223.5c0,22.496,15.725,41.375,36.756,46.259 C133.977,291.149,120,319.91,120,351.5c0,65.893,60.785,119.5,135.5,119.5S391,417.393,391,351.5 c0-31.59-13.977-60.351-36.756-81.741C375.275,264.875,391,245.996,391,223.5z M167.5,256c-17.92,0-32.5-14.58-32.5-32.5 s14.58-32.5,32.5-32.5s32.5,14.58,32.5,32.5c0,8.969-3.659,17.293-10.325,23.545c-1.289,0.636-2.596,1.322-3.913,2.034 c-3.244,1.724-6.398,3.567-9.458,5.518C173.119,255.536,170.226,256,167.5,256z M376,351.5c0,57.622-54.056,104.5-120.5,104.5 S135,409.122,135,351.5c0-33.952,18.772-64.17,47.784-83.27c0.334-0.152,0.661-0.322,0.97-0.521 c4.349-2.806,8.352-5.112,12.196-7.029C213.526,251.978,233.854,247,255.5,247s41.974,4.978,59.55,13.679 c3.845,1.917,7.848,4.223,12.196,7.029c0.31,0.2,0.636,0.37,0.97,0.521C357.228,287.33,376,317.548,376,351.5z M343.5,256 c-2.726,0-5.619-0.464-8.805-1.403c-3.06-1.951-6.214-3.793-9.458-5.518c-1.317-0.712-2.624-1.398-3.913-2.034 C314.659,240.793,311,232.469,311,223.5c0-17.92,14.58-32.5,32.5-32.5s32.5,14.58,32.5,32.5S361.42,256,343.5,256z"/> </g> </g>
</svg>